HIERARCHY
ROOT reference
{
  OFFSET 0 0 0
  CHANNELS 6 Xposition Yposition Zposition Zrotation Xrotation Yrotation
  JOINT Hips
  {
    OFFSET 4.38797 80.5719 4.69065
    CHANNELS 6 Xposition Yposition Zposition Zrotation Xrotation Yrotation
    JOINT Spine
    {
      OFFSET 0 7.52385 0
      CHANNELS 6 Xposition Yposition Zposition Zrotation Xrotation Yrotation
      JOINT Spine1
      {
        OFFSET 0 21.7843 0
        CHANNELS 6 Xposition Yposition Zposition Zrotation Xrotation Yrotation
        JOINT Neck
        {
          OFFSET 0 21.6948 1.97225
          CHANNELS 6 Xposition Yposition Zposition Zrotation Xrotation Yrotation
          JOINT Head
          {
            OFFSET 0 12.8456 -1.83509
            CHANNELS 6 Xposition Yposition Zposition Zrotation Xrotation Yrotation
            End Site
            {
              OFFSET 0 22.9386 0
            }
          }
        }
        JOINT LeftShoulder
        {
          OFFSET 3.65748 19.7052 -0.211895
          CHANNELS 6 Xposition Yposition Zposition Zrotation Xrotation Yrotation
          JOINT LeftArm
          {
            OFFSET 11.1953 0 0
            CHANNELS 6 Xposition Yposition Zposition Zrotation Xrotation Yrotation
            JOINT LeftForeArm
            {
              OFFSET 29.6607 0 0
              CHANNELS 6 Xposition Yposition Zposition Zrotation Xrotation Yrotation
              JOINT LeftHand
              {
                OFFSET 23.3476 0 0
                CHANNELS 6 Xposition Yposition Zposition Zrotation Xrotation Yrotation
                End Site
                {
                  OFFSET 13.7631 0 0
                }
              }
            }
          }
        }
        JOINT RightShoulder
        {
          OFFSET -3.68053 19.7052 -0.211895
          CHANNELS 6 Xposition Yposition Zposition Zrotation Xrotation Yrotation
          JOINT RightArm
          {
            OFFSET -11.1953 0 0
            CHANNELS 6 Xposition Yposition Zposition Zrotation Xrotation Yrotation
            JOINT RightForeArm
            {
              OFFSET -29.6607 0 0
              CHANNELS 6 Xposition Yposition Zposition Zrotation Xrotation Yrotation
              JOINT RightHand
              {
                OFFSET -23.3476 0 0
                CHANNELS 6 Xposition Yposition Zposition Zrotation Xrotation Yrotation
                End Site
                {
                  OFFSET -13.7631 0 0
                }
              }
            }
          }
        }
      }
    }
    JOINT LeftUpLeg
    {
      OFFSET 9.17543 0 0
      CHANNELS 6 Xposition Yposition Zposition Zrotation Xrotation Yrotation
      JOINT LeftLeg
      {
        OFFSET 0 -39.1216 0
        CHANNELS 6 Xposition Yposition Zposition Zrotation Xrotation Yrotation
        JOINT LeftFoot
        {
          OFFSET 0 -35.3569 0
          CHANNELS 6 Xposition Yposition Zposition Zrotation Xrotation Yrotation
          JOINT LeftToeBase
          {
            OFFSET 0 -5.96403 13.7631
            CHANNELS 6 Xposition Yposition Zposition Zrotation Xrotation Yrotation
            End Site
            {
              OFFSET 0 0 3.67017
            }
          }
        }
      }
    }
    JOINT RightUpLeg
    {
      OFFSET -9.17543 0 0
      CHANNELS 6 Xposition Yposition Zposition Zrotation Xrotation Yrotation
      JOINT RightLeg
      {
        OFFSET 0 -39.1216 0
        CHANNELS 6 Xposition Yposition Zposition Zrotation Xrotation Yrotation
        JOINT RightFoot
        {
          OFFSET 0 -35.3569 0
          CHANNELS 6 Xposition Yposition Zposition Zrotation Xrotation Yrotation
          JOINT RightToeBase
          {
            OFFSET 0 -5.96403 13.7631
            CHANNELS 6 Xposition Yposition Zposition Zrotation Xrotation Yrotation
            End Site
            {
              OFFSET 0 0 3.67017
            }
          }
        }
      }
    }
  }
}
MOTION
Frames:	8
Frame Time:	0.004
0 0 0 0 0 -0 -7.10228 72.8125 -150.669 2.03106 -12.0358 6.98352 -3.55271e-015 7.52385 2.84217e-014 0.677651 6.13019 -7.03742 8.88178e-016 21.7843 0 1.45608 19.9662 -7.25746 0 21.6948 1.97225 -1.90132 14.9268 -7.35635 0 12.8456 -1.83509 9.51281 4.36778 -6.64117 3.65748 19.7052 -0.211895 -8.94137 20.7504 -3.1053 11.1953 -1.42109e-014 -2.84217e-014 -53.0672 42.5468 -5.21962 29.6607 2.84217e-014 1.42109e-014 27.8505 -15.9172 -42.4498 23.3476 -1.42109e-014 7.10543e-015 -9.18054 -5.47625 5.33464 -3.68053 19.7052 -0.211895 6.72587 21.2362 -8.44989 -11.1953 0 0 52.9652 50.1684 16.7824 -29.6607 -1.42109e-014 2.84217e-014 -14.1573 -19.336 35.3366 -23.3476 0 0 3.06071 -15.0145 -0.414021 9.17543 1.42109e-014 -2.84217e-014 7.59706 19.3014 -0.744113 -7.10543e-015 -39.1216 0 -1.45985 18.2991 -3.56738 -3.55271e-015 -35.3569 0 -2.82362 -27.0592 8.55732 0 -5.96403 13.7631 -9.93923e-017 3.97569e-016 -0 -9.17543 0 0 -13.0583 -13.7264 0.64896 3.55271e-015 -39.1216 1.42109e-014 7.96018 25.2494 -6.02783 -3.55271e-015 -35.3569 0 3.364 -4.9332 -19.8077 0 -5.96403 13.7631 -0 -1.59028e-015 -0 
0 0 0 0 0 -0 -7.24973 72.7195 -150.398 2.10828 -12.1115 7.05016 1.77636e-015 7.52385 2.84217e-014 0.791598 6.15316 -6.92348 0 21.7843 -2.84217e-014 1.37734 20.1067 -7.12514 0 21.6948 1.97225 -1.80728 15.0936 -7.44201 0 12.8456 -1.83509 9.38619 3.9225 -6.71148 3.65748 19.7052 -0.211895 -8.96687 20.8141 -3.04809 11.1953 1.42109e-014 2.84217e-014 -53.3994 42.3913 -4.82369 29.6607 -2.84217e-014 0 27.939 -16.0208 -42.437 23.3476 2.84217e-014 -7.10543e-015 -8.97412 -5.53292 5.23312 -3.68053 19.7052 -0.211895 6.79165 21.203 -8.2326 -11.1953 -1.42109e-014 0 52.8308 50.0179 16.8115 -29.6607 -1.42109e-014 2.84217e-014 -14.315 -19.4047 35.2557 -23.3476 -2.13163e-014 -2.84217e-014 3.02765 -15.047 -0.445943 9.17543 0 0 7.66603 19.4591 -0.678006 -7.10543e-015 -39.1216 0 -1.34744 18.4934 -3.5479 0 -35.3569 0 -3.01499 -27.2505 8.35143 0 -5.96403 13.7631 9.93923e-017 0 -0 -9.17543 0 0 -13.0978 -14.0074 0.727449 0 -39.1216 0 8.30666 26.4786 -5.31946 3.55271e-015 -35.3569 2.84217e-014 2.76258 -5.84593 -20.515 1.42109e-014 -5.96403 13.7631 1.98785e-016 7.95139e-016 -3.18055e-015 
0 0 0 0 0 -0 -7.37341 72.6221 -150.169 2.21601 -12.1624 7.20802 0 7.52385 0 0.876606 6.176 -6.82082 -8.88178e-016 21.7843 -2.84217e-014 1.3831 20.2818 -7.02093 3.55271e-015 21.6948 1.97225 -1.72538 15.191 -7.57296 7.10543e-015 12.8456 -1.83509 9.24286 3.54593 -6.83595 3.65748 19.7052 -0.211895 -8.97242 20.852 -3.11707 11.1953 0 2.84217e-014 -53.2379 41.7813 -4.8798 29.6607 2.84217e-014 1.42109e-014 27.2038 -15.625 -42.5994 23.3476 0 0 -8.95064 -5.3886 5.33102 -3.68053 19.7052 -0.211895 6.87064 21.1114 -8.11373 -11.1953 -1.42109e-014 0 52.5941 49.9078 16.9066 -29.6607 0 0 -14.4111 -19.4971 35.1924 -23.3476 -1.42109e-014 2.84217e-014 2.96375 -15.1173 -0.345015 9.17543 0 0 7.68911 19.515 -0.749972 0 -39.1216 0 -1.21878 18.7618 -3.48941 0 -35.3569 0 -3.24737 -27.4814 8.17135 0 -5.96403 13.7631 9.93923e-017 1.98785e-016 -4.77083e-015 -9.17543 -2.84217e-014 0 -13.2052 -14.3604 0.645013 0 -39.1216 0 8.58352 27.7599 -4.64974 0 -35.3569 2.84217e-014 2.50313 -6.64638 -21.291 -7.10543e-015 -5.96403 13.7631 3.97569e-016 1.59028e-015 6.36111e-015 
0 0 0 0 0 -0 -7.52435 72.5431 -149.937 2.24369 -12.1573 7.36385 -3.55271e-015 7.52385 2.84217e-014 1.02194 6.169 -6.78646 -4.44089e-016 21.7843 0 1.32613 20.3615 -6.96955 0 21.6948 1.97225 -1.57308 15.3324 -7.62086 7.10543e-015 12.8456 -1.83509 9.02339 3.22731 -6.88913 3.65748 19.7052 -0.211895 -8.99346 20.9544 -2.97681 11.1953 0 0 -53.2458 41.2699 -4.87267 29.6607 0 0 26.731 -15.4063 -42.6699 23.3476 0 1.42109e-014 -8.77358 -5.31678 5.14697 -3.68053 19.7052 -0.211895 6.8647 21.0618 -7.79826 -11.1953 1.42109e-014 0 52.5222 49.8352 16.8978 -29.6607 1.42109e-014 0 -14.5912 -19.6326 35.0512 -23.3476 -7.10543e-015 0 3.27397 -15.2157 -0.183441 9.17543 0 0 7.84626 19.5306 -0.793422 7.10543e-015 -39.1216 0 -1.15712 18.9646 -3.48685 0 -35.3569 0 -3.4574 -27.6571 8.01583 0 -5.96403 13.7631 -2.48481e-016 -3.97569e-016 -0 -9.17543 0 2.84217e-014 -13.2813 -14.7698 0.762426 -7.10543e-015 -39.1216 -1.42109e-014 9.09506 28.9711 -4.08474 1.77636e-015 -35.3569 0 2.12765 -7.314 -22.3294 7.10543e-015 -5.96403 13.7631 1.98785e-016 0 -3.18055e-015 
0 0 0 0 0 -0 -7.65534 72.4676 -149.711 2.30292 -12.1801 7.50787 -1.77636e-015 7.52385 0 1.08574 6.08281 -6.68056 8.88178e-016 21.7843 0 1.41687 20.6655 -6.88121 0 21.6948 1.97225 -1.46629 15.4186 -7.73542 0 12.8456 -1.83509 8.82599 2.88694 -7.00736 3.65748 19.7052 -0.211895 -9.00175 20.9643 -3.09618 11.1953 2.84217e-014 2.84217e-014 -53.296 40.8583 -4.80086 29.6607 -2.84217e-014 0 26.2685 -15.3201 -42.7194 23.3476 -1.42109e-014 0 -8.27136 -5.38934 5.23271 -3.68053 19.7052 -0.211895 6.89006 21.0047 -7.63878 -11.1953 0 0 52.1747 49.7015 17.1344 -29.6607 0 2.84217e-014 -14.7101 -19.7766 34.9711 -23.3476 -7.10543e-015 -2.84217e-014 3.07669 -15.3389 -0.255424 9.17543 1.42109e-014 -2.84217e-014 7.93211 19.5923 -0.829195 0 -39.1216 0 -1.05522 19.149 -3.44327 -3.55271e-015 -35.3569 0 -3.51586 -27.7607 7.87741 0 -5.96403 13.7631 5.46658e-016 1.98785e-016 1.59028e-015 -9.17543 -1.42109e-014 0 -13.318 -15.1408 0.668233 3.55271e-015 -39.1216 0 9.23365 30.1632 -3.49559 0 -35.3569 0 1.91553 -7.89427 -22.8755 -7.10543e-015 -5.96403 13.7631 -1.98785e-016 -7.95139e-016 3.18055e-015 
0 0 0 0 0 -0 -7.7905 72.3988 -149.461 2.3599 -12.254 7.69106 -1.77636e-015 7.52385 0 1.22122 6.09866 -6.63824 4.44089e-016 21.7843 -2.84217e-014 1.39206 20.8358 -6.82913 0 21.6948 1.97225 -1.37734 15.5832 -7.79951 7.10543e-015 12.8456 -1.83509 8.68654 2.5653 -7.06923 3.65748 19.7052 -0.211895 -9.02589 21.0056 -3.08572 11.1953 0 0 -53.6116 40.8752 -4.54525 29.6607 0 0 26.4406 -15.5887 -42.4071 23.3476 0 1.42109e-014 -7.99811 -5.66594 5.20499 -3.68053 19.7052 -0.211895 6.95565 20.9577 -7.4248 -11.1953 -1.42109e-014 0 51.7977 49.8722 17.3108 -29.6607 0 0 -14.9474 -20.0812 34.7973 -23.3476 -1.42109e-014 0 3.12376 -15.6001 -0.181242 9.17543 0 0 8.07202 19.7639 -0.990277 0 -39.1216 -2.84217e-014 -1.0218 19.2091 -3.26045 0 -35.3569 0 -3.76817 -27.8656 7.62943 -7.10543e-015 -5.96403 13.7631 3.72721e-016 -9.93923e-017 -3.18055e-015 -9.17543 0 0 -13.3387 -15.3001 0.457223 -3.55271e-015 -39.1216 -1.42109e-014 9.35163 31.1247 -2.978 5.32907e-015 -35.3569 -2.84217e-014 1.71911 -8.49732 -23.3142 -7.10543e-015 -5.96403 13.7631 -4.41391e-032 -7.95139e-016 -3.18055e-015 
0 0 0 0 0 -0 -7.93913 72.3454 -149.229 2.3463 -12.2415 7.83376 0 7.52385 2.84217e-014 1.34695 5.99887 -6.57402 1.33227e-015 21.7843 0 1.44367 21.0527 -6.77172 0 21.6948 1.97225 -1.18066 15.7532 -7.88821 0 12.8456 -1.83509 8.39726 2.22701 -7.17509 3.65748 19.7052 -0.211895 -9.01928 21.0462 -3.09683 11.1953 0 -2.84217e-014 -53.7005 40.6631 -4.56323 29.6607 2.84217e-014 0 26.3268 -15.3672 -42.0788 23.3476 -1.42109e-014 -1.42109e-014 -7.77902 -5.54251 4.91137 -3.68053 19.7052 -0.211895 7.05062 21.2066 -7.42549 -11.1953 0 -2.84217e-014 50.9221 49.7495 18.1686 -29.6607 1.42109e-014 0 -15.0549 -20.2171 34.5967 -23.3476 -7.10543e-015 -2.84217e-014 3.14497 -15.7332 -0.136292 9.17543 0 0 8.35553 19.8262 -1.22586 0 -39.1216 0 -1.20401 19.3003 -3.25515 3.55271e-015 -35.3569 -2.84217e-014 -3.7619 -27.9416 7.7124 -7.10543e-015 -5.96403 13.7631 1.49089e-016 -3.97569e-016 -3.18055e-015 -9.17543 -1.42109e-014 0 -13.3944 -15.5756 0.550707 1.06581e-014 -39.1216 0 9.90957 32.0492 -2.62573 0 -35.3569 0 1.40908 -8.96913 -24.0387 -7.10543e-015 -5.96403 13.7631 8.82781e-032 1.59028e-015 -3.18055e-015 
0 0 0 0 0 -0 -8.08418 72.2921 -148.984 2.34575 -12.2948 8.01312 1.77636e-015 7.52385 2.84217e-014 1.46672 5.97592 -6.54714 -2.66454e-015 21.7843 0 1.56225 21.2518 -6.76369 0 21.6948 1.97225 -1.19828 15.8514 -7.94431 7.10543e-015 12.8456 -1.83509 8.29813 2.05936 -7.23479 3.65748 19.7052 -0.211895 -9.10321 21.0869 -3.04255 11.1953 0 0 -53.7199 40.4839 -4.58297 29.6607 0 0 26.1473 -15.3425 -41.8434 23.3476 0 1.42109e-014 -7.63316 -5.64817 4.93388 -3.68053 19.7052 -0.211895 7.00903 21.301 -7.3158 -11.1953 0 0 50.3915 49.5818 18.7397 -29.6607 -1.42109e-014 -2.84217e-014 -15.1311 -20.275 34.3213 -23.3476 0 -2.84217e-014 3.16634 -15.8044 -0.00227 9.17543 0 2.84217e-014 8.57665 19.9941 -1.34239 0 -39.1216 0 -1.18749 19.2919 -3.13941 0 -35.3569 -2.84217e-014 -3.90253 -28.0022 7.51629 7.10543e-015 -5.96403 13.7631 -7.95139e-016 -1.98785e-016 -3.18055e-015 -9.17543 0 2.84217e-014 -13.4346 -15.7144 0.573625 0 -39.1216 0 10.3767 32.8795 -2.25001 3.55271e-015 -35.3569 0 1.07381 -9.43918 -24.6822 0 -5.96403 13.7631 -1.76556e-031 1.59028e-015 6.36111e-015 
